<svg aria-hidden="true" style="position: absolute; width: 0; height: 0; overflow: hidden;" version="1.1" xmlns="http://www.w3.org/2000/svg" xmlns:xlink="http://www.w3.org/1999/xlink">
<defs>
<symbol id="icon-loader" viewBox="0 0 24 24">
<path d="M11 2v4c0 0.552 0.448 1 1 1s1-0.448 1-1v-4c0-0.552-0.448-1-1-1s-1 0.448-1 1zM11 18v4c0 0.552 0.448 1 1 1s1-0.448 1-1v-4c0-0.552-0.448-1-1-1s-1 0.448-1 1zM4.223 5.637l2.83 2.83c0.391 0.391 1.024 0.391 1.414 0s0.391-1.024 0-1.414l-2.83-2.83c-0.391-0.391-1.024-0.391-1.414 0s-0.391 1.024 0 1.414zM15.533 16.947l2.83 2.83c0.391 0.391 1.024 0.391 1.414 0s0.391-1.024 0-1.414l-2.83-2.83c-0.391-0.391-1.024-0.391-1.414 0s-0.391 1.024 0 1.414zM2 13h4c0.552 0 1-0.448 1-1s-0.448-1-1-1h-4c-0.552 0-1 0.448-1 1s0.448 1 1 1zM18 13h4c0.552 0 1-0.448 1-1s-0.448-1-1-1h-4c-0.552 0-1 0.448-1 1s0.448 1 1 1zM5.637 19.777l2.83-2.83c0.391-0.391 0.391-1.024 0-1.414s-1.024-0.391-1.414 0l-2.83 2.83c-0.391 0.391-0.391 1.024 0 1.414s1.024 0.391 1.414 0zM16.947 8.467l2.83-2.83c0.391-0.391 0.391-1.024 0-1.414s-1.024-0.391-1.414 0l-2.83 2.83c-0.391 0.391-0.391 1.024 0 1.414s1.024 0.391 1.414 0z"></path>
</symbol>
<symbol id="icon-sort" viewBox="0 0 16 28">
<path d="M16 17c0 0.266-0.109 0.516-0.297 0.703l-7 7c-0.187 0.187-0.438 0.297-0.703 0.297s-0.516-0.109-0.703-0.297l-7-7c-0.187-0.187-0.297-0.438-0.297-0.703 0-0.547 0.453-1 1-1h14c0.547 0 1 0.453 1 1zM16 11c0 0.547-0.453 1-1 1h-14c-0.547 0-1-0.453-1-1 0-0.266 0.109-0.516 0.297-0.703l7-7c0.187-0.187 0.438-0.297 0.703-0.297s0.516 0.109 0.703 0.297l7 7c0.187 0.187 0.297 0.438 0.297 0.703z"></path>
</symbol>
<symbol id="icon-bookmark-fill" viewBox="0 0 24 32">
<path d="M1.662 32c0.778 0 1.228-0.387 2.74-1.893l7.26-7.214c0.075-0.060 0.15-0.119 0.21-0.119 0.075 0 0.135 0.060 0.21 0.119l7.275 7.214c1.482 1.476 1.961 1.893 2.725 1.893 0.943 0 1.662-0.566 1.662-1.923v-25.412c0-3.1-1.542-4.665-4.641-4.665h-14.461c-3.084 0-4.641 1.565-4.641 4.665v25.412c0 1.356 0.734 1.923 1.662 1.923zM2.784 28.378c-0.21 0.209 0.829 0.283 0.829 0l17.345-25.979c0-1.49-17.739 0-16.182 0h14.206c1.557 0-17.32-1.49-17.32 0l9.177 18.245c0 0.283 10.328 7.927 10.119 7.733l-8.338-8.212c-0.255-0.268-0.524-0.343-0.748-0.343-0.21 0 0.060-7.188-0.21-6.92l-8.877 15.475z"></path>
</symbol>
<symbol id="icon-bookmark" viewBox="0 0 24 32">
<path d="M1.662 32c0.778 0 1.228-0.387 2.74-1.893l7.26-7.214c0.075-0.060 0.15-0.119 0.21-0.119 0.075 0 0.135 0.060 0.21 0.119l7.275 7.214c1.482 1.476 1.961 1.893 2.725 1.893 0.943 0 1.662-0.566 1.662-1.923v-25.412c0-3.1-1.542-4.665-4.641-4.665h-14.461c-3.084 0-4.641 1.565-4.641 4.665v25.412c0 1.356 0.734 1.923 1.662 1.923zM2.784 28.378c-0.21 0.209-0.374 0.149-0.374-0.134v-23.534c0-1.49 0.808-2.31 2.365-2.31h14.206c1.557 0 2.35 0.82 2.35 2.31v23.534c0 0.283-0.165 0.328-0.374 0.134l-8.338-8.212c-0.255-0.268-0.524-0.343-0.748-0.343-0.21 0-0.479 0.074-0.748 0.343l-8.338 8.212z"></path>
</symbol>
<symbol id="icon-price" viewBox="0 0 32 32">
<path d="M16 0c-8.836 0-16 7.164-16 16s7.164 16 16 16c8.836 0 16-7.164 16-16s-7.164-16-16-16zM17.333 22.596v1.404h-1.333v-1.331c-1.38-0.024-2.808-0.353-4-0.969l0.607-2.192c1.275 0.495 2.972 1.020 4.3 0.72 1.532-0.347 1.845-1.923 0.152-2.681-1.241-0.579-5.037-1.073-5.037-4.324 0-1.817 1.385-3.444 3.979-3.8v-1.423h1.333v1.357c0.965 0.025 2.048 0.193 3.256 0.56l-0.483 2.196c-1.024-0.36-2.156-0.687-3.257-0.62-1.985 0.116-2.16 1.835-0.775 2.555 2.283 1.073 5.259 1.869 5.259 4.729 0.003 2.291-1.791 3.509-4 3.819z"></path>
</symbol>
<symbol id="icon-servings" viewBox="0 0 32 32">
<path d="M25.333 9.335c0 5.153-4.179 9.333-9.333 9.333s-9.333-4.18-9.333-9.333c0-5.156 4.179-9.335 9.333-9.335s9.333 4.179 9.333 9.335zM23.203 18.908c-2.008 1.516-4.499 2.427-7.203 2.427-2.707 0-5.199-0.913-7.209-2.429-5.429 2.391-8.791 9.835-8.791 13.095h32c0-3.231-3.467-10.675-8.797-13.092z"></path>
</symbol>
<symbol id="icon-healt" viewBox="0 0 24 32">
<path d="M12 0c-4.495 3.821-7.312 4-12 4v15.38c0 6.137 4.271 7.739 12 12.62 7.729-4.881 12-6.483 12-12.62v-15.38c-4.688 0-7.505-0.179-12-4zM12 3.392c3.333 2.407 6.073 3.056 9.333 3.221v12.767c0 4.056-2.248 5.103-9.333 9.477-7.079-4.371-9.333-5.42-9.333-9.477v-12.767c3.263-0.165 6-0.815 9.333-3.221v0zM12 8.667c4.048 0 7.333 3.285 7.333 7.333s-3.285 7.333-7.333 7.333c-4.048 0-7.333-3.285-7.333-7.333s3.285-7.333 7.333-7.333zM13.333 12h-2.667v2.667h-2.667v2.667h2.667v2.667h2.667v-2.667h2.667v-2.667h-2.667v-2.667z"></path>
</symbol>

<symbol id="icon-heart" viewBox="0 0 32 32">
<path d="M29.193 5.265c-3.629-3.596-9.432-3.671-13.191-0.288-3.76-3.383-9.561-3.308-13.192 0.288-3.741 3.704-3.741 9.709 0 13.415 1.069 1.059 11.053 10.941 11.053 10.941 1.183 1.172 3.096 1.172 4.278 0 0 0 10.932-10.822 11.053-10.941 3.742-3.706 3.742-9.711-0.001-13.415zM27.768 17.268l-11.053 10.941c-0.393 0.391-1.034 0.391-1.425 0l-11.053-10.941c-2.95-2.92-2.95-7.671 0-10.591 2.844-2.815 7.416-2.914 10.409-0.222l1.356 1.22 1.355-1.22c2.994-2.692 7.566-2.594 10.41 0.222 2.95 2.919 2.95 7.67 0.001 10.591zM9.253 7.501c0.277 0 0.5 0.224 0.5 0.5s-0.224 0.5-0.5 0.5h-0.001c-1.794 0-3.249 1.455-3.249 3.249v0.001c0 0.276-0.224 0.5-0.5 0.5s-0.5-0.224-0.5-0.5v0c0-2.346 1.901-4.247 4.246-4.249 0.002 0 0.002-0.001 0.004-0.001z"></path>
</symbol>

<symbol id="icon-search" viewBox="0 0 32 32">
<path d="M31.008 27.231l-7.58-6.447c-0.784-0.705-1.622-1.029-2.299-0.998 1.789-2.096 2.87-4.815 2.87-7.787 0-6.627-5.373-12-12-12s-12 5.373-12 12 5.373 12 12 12c2.972 0 5.691-1.081 7.787-2.87-0.031 0.677 0.293 1.515 0.998 2.299l6.447 7.58c1.104 1.226 2.907 1.33 4.007 0.23s0.997-2.903-0.23-4.007zM12 20c-4.418 0-8-3.582-8-8s3.582-8 8-8 8 3.582 8 8-3.582 8-8 8z"></path>
</symbol>
<symbol id="icon-remove" viewBox="0 0 32 32">
<path d="M16 0c-8.837 0-16 7.163-16 16s7.163 16 16 16 16-7.163 16-16-7.163-16-16-16zM16 29c-7.18 0-13-5.82-13-13s5.82-13 13-13 13 5.82 13 13-5.82 13-13 13z"></path>
<path d="M21 8l-5 5-5-5-3 3 5 5-5 5 3 3 5-5 5 5 3-3-5-5 5-5z"></path>
</symbol>
<symbol id="icon-arrow-right" viewBox="0 0 32 32">
<path d="M31 16l-15-15v9h-16v12h16v9z"></path>
</symbol>
<symbol id="icon-arrow-left" viewBox="0 0 32 32">
<path d="M1 16l15 15v-9h16v-12h-16v-9z"></path>
</symbol>
<symbol id="icon-github" viewBox="0 0 32 32">
<path d="M16 0.395c-8.836 0-16 7.163-16 16 0 7.069 4.585 13.067 10.942 15.182 0.8 0.148 1.094-0.347 1.094-0.77 0-0.381-0.015-1.642-0.022-2.979-4.452 0.968-5.391-1.888-5.391-1.888-0.728-1.849-1.776-2.341-1.776-2.341-1.452-0.993 0.11-0.973 0.11-0.973 1.606 0.113 2.452 1.649 2.452 1.649 1.427 2.446 3.743 1.739 4.656 1.33 0.143-1.034 0.558-1.74 1.016-2.14-3.554-0.404-7.29-1.777-7.29-7.907 0-1.747 0.625-3.174 1.649-4.295-0.166-0.403-0.714-2.030 0.155-4.234 0 0 1.344-0.43 4.401 1.64 1.276-0.355 2.645-0.532 4.005-0.539 1.359 0.006 2.729 0.184 4.008 0.539 3.054-2.070 4.395-1.64 4.395-1.64 0.871 2.204 0.323 3.831 0.157 4.234 1.026 1.12 1.647 2.548 1.647 4.295 0 6.145-3.743 7.498-7.306 7.895 0.574 0.497 1.085 1.47 1.085 2.963 0 2.141-0.019 3.864-0.019 4.391 0 0.426 0.288 0.925 1.099 0.768 6.354-2.118 10.933-8.113 10.933-15.18 0-8.837-7.164-16-16-16z"></path>
</symbol>
<symbol id="icon-instagram" viewBox="0 0 32 32">
<path d="M16 2.881c4.275 0 4.781 0.019 6.462 0.094 1.563 0.069 2.406 0.331 2.969 0.55 0.744 0.288 1.281 0.638 1.837 1.194 0.563 0.563 0.906 1.094 1.2 1.838 0.219 0.563 0.481 1.412 0.55 2.969 0.075 1.688 0.094 2.194 0.094 6.463s-0.019 4.781-0.094 6.463c-0.069 1.563-0.331 2.406-0.55 2.969-0.288 0.744-0.637 1.281-1.194 1.837-0.563 0.563-1.094 0.906-1.837 1.2-0.563 0.219-1.413 0.481-2.969 0.55-1.688 0.075-2.194 0.094-6.463 0.094s-4.781-0.019-6.463-0.094c-1.563-0.069-2.406-0.331-2.969-0.55-0.744-0.288-1.281-0.637-1.838-1.194-0.563-0.563-0.906-1.094-1.2-1.837-0.219-0.563-0.481-1.413-0.55-2.969-0.075-1.688-0.094-2.194-0.094-6.463s0.019-4.781 0.094-6.463c0.069-1.563 0.331-2.406 0.55-2.969 0.288-0.744 0.638-1.281 1.194-1.838 0.563-0.563 1.094-0.906 1.838-1.2 0.563-0.219 1.412-0.481 2.969-0.55 1.681-0.075 2.188-0.094 6.463-0.094zM16 0c-4.344 0-4.887 0.019-6.594 0.094-1.7 0.075-2.869 0.35-3.881 0.744-1.056 0.412-1.95 0.956-2.837 1.85-0.894 0.888-1.438 1.781-1.85 2.831-0.394 1.019-0.669 2.181-0.744 3.881-0.075 1.713-0.094 2.256-0.094 6.6s0.019 4.887 0.094 6.594c0.075 1.7 0.35 2.869 0.744 3.881 0.413 1.056 0.956 1.95 1.85 2.837 0.887 0.887 1.781 1.438 2.831 1.844 1.019 0.394 2.181 0.669 3.881 0.744 1.706 0.075 2.25 0.094 6.594 0.094s4.888-0.019 6.594-0.094c1.7-0.075 2.869-0.35 3.881-0.744 1.050-0.406 1.944-0.956 2.831-1.844s1.438-1.781 1.844-2.831c0.394-1.019 0.669-2.181 0.744-3.881 0.075-1.706 0.094-2.25 0.094-6.594s-0.019-4.887-0.094-6.594c-0.075-1.7-0.35-2.869-0.744-3.881-0.394-1.063-0.938-1.956-1.831-2.844-0.887-0.887-1.781-1.438-2.831-1.844-1.019-0.394-2.181-0.669-3.881-0.744-1.712-0.081-2.256-0.1-6.6-0.1v0z"></path>
<path d="M16 7.781c-4.537 0-8.219 3.681-8.219 8.219s3.681 8.219 8.219 8.219 8.219-3.681 8.219-8.219c0-4.537-3.681-8.219-8.219-8.219zM16 21.331c-2.944 0-5.331-2.387-5.331-5.331s2.387-5.331 5.331-5.331c2.944 0 5.331 2.387 5.331 5.331s-2.387 5.331-5.331 5.331z"></path>
<path d="M26.462 7.456c0 1.060-0.859 1.919-1.919 1.919s-1.919-0.859-1.919-1.919c0-1.060 0.859-1.919 1.919-1.919s1.919 0.859 1.919 1.919z"></path>
</symbol>
<symbol id="icon-twitter" viewBox="0 0 32 32">
<path d="M32 7.075c-1.175 0.525-2.444 0.875-3.769 1.031 1.356-0.813 2.394-2.1 2.887-3.631-1.269 0.75-2.675 1.3-4.169 1.594-1.2-1.275-2.906-2.069-4.794-2.069-3.625 0-6.563 2.938-6.563 6.563 0 0.512 0.056 1.012 0.169 1.494-5.456-0.275-10.294-2.888-13.531-6.862-0.563 0.969-0.887 2.1-0.887 3.3 0 2.275 1.156 4.287 2.919 5.463-1.075-0.031-2.087-0.331-2.975-0.819 0 0.025 0 0.056 0 0.081 0 3.181 2.263 5.838 5.269 6.437-0.55 0.15-1.131 0.231-1.731 0.231-0.425 0-0.831-0.044-1.237-0.119 0.838 2.606 3.263 4.506 6.131 4.563-2.25 1.762-5.075 2.813-8.156 2.813-0.531 0-1.050-0.031-1.569-0.094 2.913 1.869 6.362 2.95 10.069 2.95 12.075 0 18.681-10.006 18.681-18.681 0-0.287-0.006-0.569-0.019-0.85 1.281-0.919 2.394-2.075 3.275-3.394z"></path>
</symbol>

<symbol id="icon-light" viewBox="0 0 24 24">
<path d="M11.016 21h-1.031l1.031-6.984h-3.516q-0.75 0-0.375-0.656 0.141-0.234 0.047-0.141 2.391-4.172 5.813-10.219h1.031l-1.031 6.984h3.516q0.656 0 0.422 0.656z"></path>
</symbol>
<symbol id="icon-close" viewBox="0 0 20 20">
<path d="M10 8.586l-7.071-7.071-1.414 1.414 7.071 7.071-7.071 7.071 1.414 1.414 7.071-7.071 7.071 7.071 1.414-1.414-7.071-7.071 7.071-7.071-1.414-1.414-7.071 7.071z"></path>
</symbol><symbol id="icon-down" viewBox="0 0 20 20">
<path d="M5 6h10l-5 9-5-9z"></path>
</symbol>


<symbol id="icon-steps" viewBox="0 0 34 32">
<path d="M9.39 0.279l-7.446 4.436c-1.069 0.637-1.944 2.171-1.944 3.408v22.505c0 1.238 0.875 1.73 1.944 1.093l7.446-4.436c1.069-0.637 1.944-2.171 1.944-3.408v-22.505c0-1.238-0.875-1.73-1.944-1.093zM3.4 23.877c-0.626 0-1.133-0.504-1.133-1.125s0.508-1.125 1.133-1.125 1.133 0.504 1.133 1.125c0 0.621-0.508 1.125-1.133 1.125zM5.667 20.501c-0.626 0-1.133-0.504-1.133-1.125s0.508-1.125 1.133-1.125 1.133 0.504 1.133 1.125c0 0.621-0.508 1.125-1.133 1.125zM9.067 17.125c-0.626 0-1.133-0.504-1.133-1.125s0.508-1.125 1.133-1.125c0.626 0 1.133 0.504 1.133 1.125s-0.508 1.125-1.133 1.125zM19.72 4.522l-5.44-4.051c-0.997-0.743-1.813-0.338-1.813 0.9v10.127c0.626 0 1.133 0.504 1.133 1.125s-0.508 1.125-1.133 1.125v10.127c0 1.238 0.816 2.858 1.813 3.601l5.44 4.051c0.997 0.743 1.813 0.338 1.813-0.9v-16.879c-0.626 0-1.133-0.504-1.133-1.125s0.508-1.125 1.133-1.125v-3.376c0-1.238-0.816-2.858-1.813-3.601zM17 12.624c-0.626 0-1.133-0.504-1.133-1.125s0.508-1.125 1.133-1.125c0.626 0 1.133 0.504 1.133 1.125s-0.508 1.125-1.133 1.125zM32.056 0.279l-7.446 4.436c-1.069 0.637-1.944 2.171-1.944 3.408v22.505c0 1.238 0.875 1.73 1.944 1.093l7.446-4.436c1.069-0.637 1.944-2.171 1.944-3.408v-22.505c0-1.238-0.875-1.73-1.944-1.093zM24.933 14.875c-0.626 0-1.133-0.504-1.133-1.125s0.508-1.125 1.133-1.125 1.133 0.504 1.133 1.125c0 0.621-0.508 1.125-1.133 1.125zM32.535 19.706c0.443 0.44 0.443 1.151 0 1.591-0.221 0.219-0.511 0.33-0.801 0.33s-0.58-0.11-0.801-0.33l-1.465-1.455-1.465 1.455c-0.221 0.219-0.511 0.33-0.801 0.33s-0.58-0.11-0.801-0.33c-0.443-0.44-0.443-1.151 0-1.591l1.465-1.455-1.465-1.455c-0.443-0.44-0.443-1.151 0-1.591s1.159-0.44 1.603 0l1.465 1.455 1.465-1.455c0.443-0.44 1.159-0.44 1.603 0s0.443 1.151 0 1.591l-1.465 1.455 1.465 1.455z"></path>
</symbol>
<symbol id="icon-timer" viewBox="0 0 32 32">
<path d="M17.719 0.806c-0.069 0.031-0.194 0.131-0.281 0.225-0.156 0.163-0.156 0.181-0.156 1.225v1.056l0.206 0.2 0.2 0.206h5.625l0.2-0.206 0.206-0.2v-2.125l-0.206-0.2-0.2-0.206-2.738-0.012c-1.5-0.006-2.788 0.012-2.856 0.037z"></path>
<path d="M19 5.169v0.675l-0.706 0.138c-1.625 0.319-3.256 1.050-4.606 2.075l-0.344 0.256-0.506-0.506c-0.425-0.425-0.544-0.506-0.756-0.537-0.481-0.063-0.875 0.331-0.813 0.813 0.031 0.213 0.113 0.331 0.519 0.738 0.438 0.444 0.475 0.5 0.394 0.6-0.050 0.063-0.231 0.281-0.4 0.488-0.762 0.906-1.569 2.375-1.956 3.563-1.581 4.787 0.231 10.056 4.412 12.863 2.169 1.456 4.881 2.131 7.438 1.85 1.406-0.15 2.5-0.481 3.856-1.15 4.981-2.469 7.394-8.256 5.644-13.563-0.387-1.188-1.194-2.656-1.956-3.563-0.169-0.206-0.35-0.425-0.4-0.488-0.081-0.1-0.044-0.156 0.394-0.6 0.406-0.406 0.488-0.525 0.519-0.738 0.063-0.481-0.331-0.875-0.813-0.813-0.212 0.031-0.331 0.112-0.756 0.537l-0.506 0.506-0.5-0.375c-1.262-0.944-2.863-1.644-4.425-1.95l-0.731-0.144v-1.344h-3v0.669zM22.319 7.938c3.756 0.794 6.525 3.606 7.281 7.406 0.156 0.781 0.156 2.531 0 3.313-0.756 3.806-3.506 6.6-7.313 7.419-0.85 0.181-2.6 0.2-3.444 0.031-3.813-0.769-6.6-3.512-7.419-7.319-0.194-0.913-0.194-2.669 0-3.575 0.863-4 3.912-6.838 7.95-7.4 0.65-0.088 2.256-0.025 2.944 0.125z"></path>
<path d="M19.406 8.569c-1.006 0.131-2.2 0.531-3.106 1.050-3.856 2.206-5.363 6.95-3.488 10.988 0.787 1.694 2.206 3.15 3.913 4.006 0.525 0.262 1.512 0.6 2.181 0.738 0.756 0.156 2.394 0.163 3.156 0.006 3.837-0.762 6.625-3.9 6.913-7.781l0.044-0.575h-8.519v-8.5l-0.325 0.006c-0.181 0.006-0.525 0.037-0.769 0.063z"></path>
<path d="M3.219 11.806c-0.275 0.119-0.438 0.375-0.438 0.7 0 0.262 0.031 0.331 0.206 0.506l0.2 0.206h5.625l0.2-0.206c0.175-0.175 0.206-0.244 0.206-0.512s-0.031-0.338-0.206-0.512l-0.2-0.206-2.737-0.012c-1.5-0.006-2.788 0.012-2.856 0.037z"></path>
<path d="M0.719 14.806c-0.275 0.119-0.438 0.375-0.438 0.7 0 0.262 0.031 0.331 0.206 0.506l0.2 0.206h7.125l0.2-0.206c0.175-0.175 0.206-0.244 0.206-0.512s-0.031-0.338-0.206-0.512l-0.2-0.206-3.487-0.012c-1.913-0.006-3.538 0.012-3.606 0.037z"></path>
<path d="M2.219 17.806c-0.275 0.119-0.438 0.375-0.438 0.7 0 0.262 0.031 0.331 0.206 0.506l0.2 0.206h5.625l0.2-0.206c0.175-0.175 0.206-0.244 0.206-0.512s-0.031-0.337-0.206-0.512l-0.2-0.206-2.737-0.012c-1.5-0.006-2.788 0.012-2.856 0.038z"></path>
<path d="M4.219 20.806c-0.275 0.119-0.438 0.375-0.438 0.7 0 0.262 0.031 0.331 0.206 0.506l0.2 0.206h4.125l0.2-0.206c0.175-0.175 0.206-0.244 0.206-0.512s-0.031-0.337-0.206-0.512l-0.2-0.206-1.987-0.012c-1.087-0.006-2.038 0.012-2.106 0.038z"></path>
</symbol>

<symbol id="icon-checkmark" viewBox="0 0 46 32">
<path d="M0.578 16.729l16.802 14.837c0.331 0.29 0.742 0.434 1.153 0.434 0.476 0 0.948-0.192 1.292-0.569l25.954-28.574c0.298-0.327 0.444-0.734 0.444-1.143 0-0.958-0.781-1.714-1.731-1.714-0.476 0-0.95 0.192-1.292 0.569l-24.8 27.303-15.51-13.701c-0.333-0.29-0.744-0.434-1.156-0.434-0.964 0-1.733 0.768-1.733 1.712 0 0.471 0.194 0.942 0.578 1.28z"></path>
</symbol>

<symbol id="icon-sammury" viewBox="0 0 24 32">
<path d="M2.259 0.069c-1.075 0.212-1.988 1.137-2.194 2.237-0.063 0.35-0.094 22.694-0.031 22.694 0.019 0 0.15-0.056 0.287-0.131 0.55-0.275 1.125-0.369 2.319-0.369h1.112v-24.5l-0.606 0.006c-0.337 0.006-0.737 0.031-0.888 0.063z"></path>
<path d="M5.628 12.25v12.25h18.75v-11.875c0-11.781 0-11.881-0.125-12.125-0.081-0.162-0.213-0.294-0.375-0.375-0.244-0.125-0.35-0.125-9.25-0.125h-9v12.25zM15.903 4.875c0.269 0.069 0.65 0.213 0.85 0.319 0.456 0.244 1.056 0.775 1.294 1.15 0.106 0.181 0.231 0.3 0.331 0.319 0.881 0.187 1.644 0.606 2.194 1.2 1.312 1.431 1.312 3.612 0 5.031-0.188 0.2-0.463 0.45-0.613 0.55l-0.269 0.187v2.688c0 2.569-0.006 2.7-0.125 2.931-0.081 0.163-0.212 0.294-0.375 0.375-0.237 0.119-0.362 0.125-4.187 0.125s-3.95-0.006-4.187-0.125c-0.163-0.081-0.294-0.212-0.375-0.375-0.119-0.231-0.125-0.362-0.125-2.931v-2.688l-0.269-0.187c-0.15-0.1-0.425-0.35-0.613-0.55-1.312-1.419-1.312-3.6 0-5.031 0.55-0.594 1.313-1.013 2.194-1.2 0.1-0.019 0.225-0.138 0.331-0.319 0.1-0.156 0.35-0.431 0.55-0.619 0.938-0.844 2.194-1.156 3.394-0.85z"></path>
<path d="M14.472 6.706c-0.525 0.175-1.044 0.65-1.181 1.094-0.062 0.194-0.331 0.5-0.531 0.6-0.087 0.044-0.356 0.106-0.6 0.131-0.781 0.075-1.344 0.419-1.625 0.994-0.562 1.156 0.1 2.463 1.369 2.681 0.337 0.056 0.462 0.050 0.781-0.037 0.206-0.056 0.494-0.106 0.638-0.106 0.962 0 1.219 1.325 0.344 1.75-0.281 0.137-1.012 0.312-1.3 0.312h-0.175v3.75h5.625v-3.75h-0.169c-0.294 0-1.025-0.175-1.306-0.312-0.875-0.425-0.619-1.75 0.344-1.75 0.144 0 0.431 0.050 0.638 0.106 1.519 0.419 2.856-1.175 2.175-2.588-0.3-0.625-0.856-0.987-1.631-1.075-0.706-0.081-0.919-0.225-1.181-0.787-0.294-0.625-0.887-1.025-1.575-1.069-0.219-0.012-0.5 0.013-0.637 0.056z"></path>
<path d="M1.284 26.488c-1.313 0.456-1.7 2.094-0.719 3.075 0.519 0.519 0.563 0.531 2.956 0.55l2.106 0.019v-3.756h-2.013c-1.75 0.006-2.063 0.019-2.331 0.113z"></path>
<path d="M7.503 28.819c0 2.375 0.006 2.45 0.131 2.681 0.15 0.263 0.513 0.5 0.769 0.5 0.275 0 0.531-0.137 1.713-0.931l1.137-0.756 1.138 0.756c1.181 0.794 1.437 0.931 1.712 0.931 0.256 0 0.619-0.237 0.769-0.5 0.125-0.231 0.131-0.306 0.131-2.681v-2.444h-7.5v2.444z"></path>
<path d="M16.878 28.25v1.875h3.375c3.263 0 3.388-0.006 3.625-0.125 0.281-0.144 0.5-0.5 0.5-0.812s-0.219-0.669-0.5-0.813c-0.194-0.1-0.369-0.125-0.812-0.125h-0.563v-1.875h-5.625v1.875z"></path>
</symbol>
<symbol id="icon-ingredients" viewBox="0 0 32 32">
<path d="M9.344 30.552c-5.512-2.528-9.344-8.096-9.344-14.552 0-8.831 7.169-16 16-16s16 7.169 16 16c0 5.919-3.22 11.091-8.003 13.859 0.003-7.197 0.005-17.079-0.003-18.247-0.004-0.549-0.4-0.945-0.897-0.945-1.729 0-4.287 6.893-5.177 14.667 1.439-0.004 2.741 0 2.741 0v5.976c-1.476 0.449-3.040 0.691-4.661 0.691-1.136 0-2.244-0.119-3.312-0.344v-8.128c0-0.78 0.48-1.020 1.535-1.855 0.792-0.627 1.355-1.616 1.247-2.617-0.308-2.828-1.057-8.389-1.057-8.389h-0.611v6.667h-1.113l-0.221-6.667h-0.625l-0.268 6.667h-1.115l-0.192-6.667h-0.675l-0.248 6.667h-1.115v-6.667h-0.667c0 0-0.679 5.597-0.957 8.416-0.099 0.988 0.435 1.959 1.209 2.58 1.049 0.84 1.529 1.092 1.529 1.86v7.029z"></path>
</symbol>
</defs>
</svg>
