<svg aria-hidden="true" style="position: absolute; width: 0; height: 0; overflow: hidden;" version="1.1" xmlns="http://www.w3.org/2000/svg" xmlns:xlink="http://www.w3.org/1999/xlink">
<defs>
<symbol id="icon-default" viewBox="0 0 24 24">
<path d="M12 9q1.219 0 2.109 0.891t0.891 2.109-0.891 2.109-2.109 0.891-2.109-0.891-0.891-2.109 0.891-2.109 2.109-0.891zM18.984 18.984v-3.984h2.016v3.984q0 0.797-0.609 1.406t-1.406 0.609h-3.984v-2.016h3.984zM18.984 3q0.797 0 1.406 0.609t0.609 1.406v3.984h-2.016v-3.984h-3.984v-2.016h3.984zM5.016 5.016v3.984h-2.016v-3.984q0-0.797 0.609-1.406t1.406-0.609h3.984v2.016h-3.984zM5.016 15v3.984h3.984v2.016h-3.984q-0.797 0-1.406-0.609t-0.609-1.406v-3.984h2.016z"></path>
</symbol>
<!-- <symbol id="icon-default" viewBox="0 0 24 24">
<path d="M3 12.984v-1.969h12v1.969h-12zM3 6h18v2.016h-18v-2.016zM3 18v-2.016h6v2.016h-6z"></path>
</symbol> -->
<symbol id="icon-loader" viewBox="0 0 24 24">
<path d="M11 2v4c0 0.552 0.448 1 1 1s1-0.448 1-1v-4c0-0.552-0.448-1-1-1s-1 0.448-1 1zM11 18v4c0 0.552 0.448 1 1 1s1-0.448 1-1v-4c0-0.552-0.448-1-1-1s-1 0.448-1 1zM4.223 5.637l2.83 2.83c0.391 0.391 1.024 0.391 1.414 0s0.391-1.024 0-1.414l-2.83-2.83c-0.391-0.391-1.024-0.391-1.414 0s-0.391 1.024 0 1.414zM15.533 16.947l2.83 2.83c0.391 0.391 1.024 0.391 1.414 0s0.391-1.024 0-1.414l-2.83-2.83c-0.391-0.391-1.024-0.391-1.414 0s-0.391 1.024 0 1.414zM2 13h4c0.552 0 1-0.448 1-1s-0.448-1-1-1h-4c-0.552 0-1 0.448-1 1s0.448 1 1 1zM18 13h4c0.552 0 1-0.448 1-1s-0.448-1-1-1h-4c-0.552 0-1 0.448-1 1s0.448 1 1 1zM5.637 19.777l2.83-2.83c0.391-0.391 0.391-1.024 0-1.414s-1.024-0.391-1.414 0l-2.83 2.83c-0.391 0.391-0.391 1.024 0 1.414s1.024 0.391 1.414 0zM16.947 8.467l2.83-2.83c0.391-0.391 0.391-1.024 0-1.414s-1.024-0.391-1.414 0l-2.83 2.83c-0.391 0.391-0.391 1.024 0 1.414s1.024 0.391 1.414 0z"></path>
</symbol>
<symbol id="icon-sort" viewBox="0 0 16 28">
<path d="M16 17c0 0.266-0.109 0.516-0.297 0.703l-7 7c-0.187 0.187-0.438 0.297-0.703 0.297s-0.516-0.109-0.703-0.297l-7-7c-0.187-0.187-0.297-0.438-0.297-0.703 0-0.547 0.453-1 1-1h14c0.547 0 1 0.453 1 1zM16 11c0 0.547-0.453 1-1 1h-14c-0.547 0-1-0.453-1-1 0-0.266 0.109-0.516 0.297-0.703l7-7c0.187-0.187 0.438-0.297 0.703-0.297s0.516 0.109 0.703 0.297l7 7c0.187 0.187 0.297 0.438 0.297 0.703z"></path>
</symbol>
<symbol id="icon-bookmark-outline-add" viewBox="0 0 20 20">
<path d="M2 2c0-1.1 0.9-2 2-2h12c1.105 0 2 0.895 2 2v0 18l-8-4-8 4v-18zM4 2v15l6-3 6 3v-15h-12zM9 7v-2h2v2h2v2h-2v2h-2v-2h-2v-2h2z"></path>
</symbol>
<symbol id="icon-bookmark" viewBox="0 0 20 20">
<path d="M2 2c0-1.1 0.9-2 2-2h12c1.105 0 2 0.895 2 2v0 18l-8-4-8 4v-18z"></path>
</symbol>
<symbol id="icon-health" viewBox="0 0 32 32">
<path d="M27.020 14.786c-2.055-5.732-6.41-10.88-11.020-14.786-4.61 3.907-8.965 9.054-11.020 14.786-1.271 3.545-1.396 7.393 0.393 10.794 2.058 3.911 6.207 6.42 10.626 6.42s8.569-2.509 10.626-6.42c1.79-3.401 1.664-7.249 0.393-10.794zM23.086 23.717c-1.369 2.602-4.15 4.283-7.086 4.283-1.723 0-3.391-0.579-4.753-1.583 0.414 0.054 0.832 0.083 1.254 0.083 3.67 0 7.146-2.1 8.856-5.351 1.402-2.665 1.281-5.433 0.746-7.636 0.455 0.88 0.841 1.756 1.151 2.623 0.706 1.971 1.251 4.886-0.168 7.581z"></path>
</symbol>
<symbol id="icon-price" viewBox="0 0 32 32">
<path d="M15 2c-8.284 0-15 6.716-15 15s6.716 15 15 15c8.284 0 15-6.716 15-15s-6.716-15-15-15zM15 29c-6.627 0-12-5.373-12-12s5.373-12 12-12c6.627 0 12 5.373 12 12s-5.373 12-12 12z"></path>
<path d="M20.963 20.136c-0.477-0.278-1.089-0.116-1.367 0.362-0.539 0.927-1.534 1.503-2.596 1.503h-4c-1.304 0-2.415-0.836-2.828-2h4.828c0.552 0 1-0.448 1-1s-0.448-1-1-1h-5v-2h5c0.552 0 1-0.448 1-1s-0.448-1-1-1h-4.828c0.413-1.164 1.524-2 2.828-2h4c1.062 0 2.057 0.576 2.596 1.503 0.278 0.477 0.89 0.639 1.367 0.361s0.639-0.89 0.361-1.367c-0.896-1.54-2.553-2.497-4.325-2.497h-4c-2.415 0-4.435 1.72-4.899 4h-1.101c-0.552 0-1 0.448-1 1s0.448 1 1 1h1v2h-1c-0.552 0-1 0.448-1 1s0.448 1 1 1h1.101c0.465 2.279 2.485 4 4.899 4h4c1.772 0 3.429-0.957 4.325-2.497 0.278-0.477 0.116-1.090-0.362-1.367z"></path>
</symbol>
<symbol id="icon-time" viewBox="0 0 32 32">
<path d="M16 6.038v-2.038h4v-2c0-1.105-0.895-2-2-2h-6c-1.105 0-2 0.895-2 2v2h4v2.038c-6.712 0.511-12 6.119-12 12.962 0 7.18 5.82 13 13 13s13-5.82 13-13c0-6.843-5.288-12.451-12-12.962zM22.071 26.071c-1.889 1.889-4.4 2.929-7.071 2.929s-5.182-1.040-7.071-2.929c-1.889-1.889-2.929-4.4-2.929-7.071s1.040-5.182 2.929-7.071c1.814-1.814 4.201-2.844 6.754-2.923l-0.677 9.813c-0.058 0.822 0.389 1.181 0.995 1.181s1.053-0.36 0.995-1.181l-0.677-9.813c2.552 0.079 4.94 1.11 6.754 2.923 1.889 1.889 2.929 4.4 2.929 7.071s-1.040 5.182-2.929 7.071z"></path>
</symbol>
<symbol id="icon-search" viewBox="0 0 32 32">
<path d="M31.008 27.231l-7.58-6.447c-0.784-0.705-1.622-1.029-2.299-0.998 1.789-2.096 2.87-4.815 2.87-7.787 0-6.627-5.373-12-12-12s-12 5.373-12 12 5.373 12 12 12c2.972 0 5.691-1.081 7.787-2.87-0.031 0.677 0.293 1.515 0.998 2.299l6.447 7.58c1.104 1.226 2.907 1.33 4.007 0.23s0.997-2.903-0.23-4.007zM12 20c-4.418 0-8-3.582-8-8s3.582-8 8-8 8 3.582 8 8-3.582 8-8 8z"></path>
</symbol>
<!-- <symbol id="icon-default" viewBox="0 0 32 32">
<path d="M28 14h0.5c0.825 0 1.5-0.675 1.5-1.5v-5c0-0.825-0.675-1.5-1.5-1.5h-0.5v-6h-4v6h-0.5c-0.825 0-1.5 0.675-1.5 1.5v5c0 0.825 0.675 1.5 1.5 1.5h0.5v18h4v-18zM24 8h4v4h-4v-4zM18.5 26c0.825 0 1.5-0.675 1.5-1.5v-5c0-0.825-0.675-1.5-1.5-1.5h-0.5v-18h-4v18h-0.5c-0.825 0-1.5 0.675-1.5 1.5v5c0 0.825 0.675 1.5 1.5 1.5h0.5v6h4v-6h0.5zM14 20h4v4h-4v-4zM8.5 14c0.825 0 1.5-0.675 1.5-1.5v-5c0-0.825-0.675-1.5-1.5-1.5h-0.5v-6h-4v6h-0.5c-0.825 0-1.5 0.675-1.5 1.5v5c0 0.825 0.675 1.5 1.5 1.5h0.5v18h4v-18h0.5zM4 8h4v4h-4v-4z"></path>
</symbol> -->
<symbol id="icon-remove" viewBox="0 0 32 32">
<path d="M16 0c-8.837 0-16 7.163-16 16s7.163 16 16 16 16-7.163 16-16-7.163-16-16-16zM16 29c-7.18 0-13-5.82-13-13s5.82-13 13-13 13 5.82 13 13-5.82 13-13 13z"></path>
<path d="M21 8l-5 5-5-5-3 3 5 5-5 5 3 3 5-5 5 5 3-3-5-5 5-5z"></path>
</symbol>
<symbol id="icon-arrow-right" viewBox="0 0 32 32">
<path d="M31 16l-15-15v9h-16v12h16v9z"></path>
</symbol>
<symbol id="icon-arrow-left" viewBox="0 0 32 32">
<path d="M1 16l15 15v-9h16v-12h-16v-9z"></path>
</symbol>
<symbol id="icon-twitter" viewBox="0 0 32 32">
<path d="M32 7.075c-1.175 0.525-2.444 0.875-3.769 1.031 1.356-0.813 2.394-2.1 2.887-3.631-1.269 0.75-2.675 1.3-4.169 1.594-1.2-1.275-2.906-2.069-4.794-2.069-3.625 0-6.563 2.938-6.563 6.563 0 0.512 0.056 1.012 0.169 1.494-5.456-0.275-10.294-2.888-13.531-6.862-0.563 0.969-0.887 2.1-0.887 3.3 0 2.275 1.156 4.287 2.919 5.463-1.075-0.031-2.087-0.331-2.975-0.819 0 0.025 0 0.056 0 0.081 0 3.181 2.263 5.838 5.269 6.437-0.55 0.15-1.131 0.231-1.731 0.231-0.425 0-0.831-0.044-1.237-0.119 0.838 2.606 3.263 4.506 6.131 4.563-2.25 1.762-5.075 2.813-8.156 2.813-0.531 0-1.050-0.031-1.569-0.094 2.913 1.869 6.362 2.95 10.069 2.95 12.075 0 18.681-10.006 18.681-18.681 0-0.287-0.006-0.569-0.019-0.85 1.281-0.919 2.394-2.075 3.275-3.394z"></path>
</symbol>
<symbol id="icon-github" viewBox="0 0 32 32">
<path d="M16 0.395c-8.836 0-16 7.163-16 16 0 7.069 4.585 13.067 10.942 15.182 0.8 0.148 1.094-0.347 1.094-0.77 0-0.381-0.015-1.642-0.022-2.979-4.452 0.968-5.391-1.888-5.391-1.888-0.728-1.849-1.776-2.341-1.776-2.341-1.452-0.993 0.11-0.973 0.11-0.973 1.606 0.113 2.452 1.649 2.452 1.649 1.427 2.446 3.743 1.739 4.656 1.33 0.143-1.034 0.558-1.74 1.016-2.14-3.554-0.404-7.29-1.777-7.29-7.907 0-1.747 0.625-3.174 1.649-4.295-0.166-0.403-0.714-2.030 0.155-4.234 0 0 1.344-0.43 4.401 1.64 1.276-0.355 2.645-0.532 4.005-0.539 1.359 0.006 2.729 0.184 4.008 0.539 3.054-2.070 4.395-1.64 4.395-1.64 0.871 2.204 0.323 3.831 0.157 4.234 1.026 1.12 1.647 2.548 1.647 4.295 0 6.145-3.743 7.498-7.306 7.895 0.574 0.497 1.085 1.47 1.085 2.963 0 2.141-0.019 3.864-0.019 4.391 0 0.426 0.288 0.925 1.099 0.768 6.354-2.118 10.933-8.113 10.933-15.18 0-8.837-7.164-16-16-16z"></path>
</symbol>
<symbol id="icon-linkedin2" viewBox="0 0 32 32">
<path d="M12 12h5.535v2.837h0.079c0.77-1.381 2.655-2.837 5.464-2.837 5.842 0 6.922 3.637 6.922 8.367v9.633h-5.769v-8.54c0-2.037-0.042-4.657-3.001-4.657-3.005 0-3.463 2.218-3.463 4.509v8.688h-5.767v-18z"></path>
<path d="M2 12h6v18h-6v-18z"></path>
<path d="M8 7c0 1.657-1.343 3-3 3s-3-1.343-3-3c0-1.657 1.343-3 3-3s3 1.343 3 3z"></path>
</symbol><symbol id="icon-down" viewBox="0 0 20 20">
<path d="M5 6h10l-5 9-5-9z"></path>
</symbol>

</defs>
</svg>
