<svg width="86" height="84" viewBox="0 0 86 84" fill="none" xmlns="http://www.w3.org/2000/svg">
<path d="M40.502 0.0846184C40.4257 0.127302 40.3424 0.198441 40.3146 0.241124C40.2105 0.390516 40.2591 0.710642 40.4049 0.860034C40.5367 0.995198 40.5923 1.00231 41.6682 0.959628C42.6955 0.909831 45.4997 1.00943 46.2077 1.10902C46.4576 1.14459 46.5201 1.13036 46.6797 0.966742C46.9018 0.731983 46.888 0.454541 46.645 0.276694C46.5062 0.177099 46.2424 0.134416 45.4095 0.0703906C43.9518 -0.029204 40.6825 -0.0220901 40.502 0.0846184Z" fill="white"/>
<path d="M33.9773 0.852949C31.7214 1.31535 29.3961 1.97694 29.2086 2.21882C29.0421 2.41089 29.049 2.63854 29.2225 2.83061C29.403 3.0298 29.5488 3.02269 30.2221 2.80927C31.0411 2.53894 33.1582 1.99829 34.2757 1.77776C35.3377 1.56434 35.539 1.46474 35.539 1.13039C35.539 0.916974 35.2614 0.632418 35.0601 0.646646C34.9976 0.646646 34.5117 0.739126 33.9773 0.852949Z" fill="white"/>
<path d="M51.7815 1.08771C51.5178 1.22287 51.4483 1.52165 51.6149 1.7493C51.7329 1.91292 51.9134 1.98406 52.9268 2.24016C54.322 2.59585 55.2244 2.86618 56.5015 3.30724C57.3137 3.58469 57.4664 3.62025 57.633 3.54912C57.8412 3.46375 57.9314 3.22899 57.862 2.95866C57.8343 2.84484 57.7163 2.74524 57.4941 2.64565C56.8833 2.38244 54.9537 1.77064 53.6209 1.42206C51.8926 0.973884 51.9759 0.988111 51.7815 1.08771Z" fill="white"/>
<path d="M22.8297 4.78697C20.7542 5.86828 18.9842 6.95671 18.8593 7.23415C18.7621 7.46179 18.9079 7.76058 19.1716 7.85306C19.3313 7.90997 19.4909 7.83172 20.4835 7.21992C21.1082 6.82866 22.2605 6.18129 23.0448 5.7758C23.8292 5.36319 24.5233 4.97904 24.5927 4.92213C24.7663 4.76563 24.7454 4.37436 24.558 4.2392C24.4747 4.17517 24.3359 4.12537 24.2596 4.12537C24.1763 4.12537 23.5377 4.42416 22.8297 4.78697Z" fill="white"/>
<path d="M62.3461 5.09281C62.1656 5.22086 62.1378 5.61924 62.2975 5.78286C62.353 5.83977 62.7209 6.06741 63.1165 6.28083C64.0883 6.81437 65.2891 7.56133 66.4136 8.32963C66.9203 8.67821 67.4062 8.96277 67.4895 8.96277C67.67 8.96277 67.9546 8.69244 67.9546 8.52171C67.9546 8.28695 67.8574 8.16601 67.3368 7.79609C65.9486 6.80014 62.9152 4.97898 62.6376 4.97898C62.5612 4.97898 62.4294 5.02878 62.3461 5.09281Z" fill="white"/>
<path d="M39.4261 10.037C34.72 10.6204 30.6247 13.0248 28.2855 16.5747C28.0634 16.909 27.8759 17.1936 27.8621 17.2078C27.8482 17.222 27.4525 17.1011 26.9875 16.9446C23.7667 15.8491 20.1851 15.906 17.0268 17.1153C12.9523 18.6662 10.0648 21.8745 9.22488 25.7872C9.00276 26.8045 8.97499 28.4193 9.14853 29.4935C9.64829 32.4814 11.2517 34.9926 13.9241 36.9631C14.7015 37.5394 16.2425 38.3361 17.3045 38.7203L18.1235 39.019V40.8117C18.1235 42.1776 18.1443 42.6116 18.2068 42.6116C18.2554 42.6116 18.3873 42.5546 18.4984 42.4835C18.6164 42.4124 24.3915 38.9977 31.3396 34.893C38.2878 30.7954 44.049 27.3807 44.1462 27.3096C44.2642 27.2313 44.3544 27.0606 44.4169 26.8187C44.5418 26.3065 45.1041 25.1754 45.5414 24.5423C45.9856 23.8949 47.117 22.6926 47.8181 22.1093C52.1563 18.531 58.1952 17.4924 60.5969 19.9182C63.1374 22.4721 60.3192 27.5586 54.8704 30.2689C53.6834 30.8594 52.7741 31.2009 51.6774 31.4641C50.2336 31.8127 48.8523 31.8909 47.7278 31.6917L47.117 31.585L42.0777 34.5586C39.3012 36.2019 32.8181 40.0292 27.6608 43.074C22.5104 46.1116 18.2485 48.637 18.2068 48.6726C18.1374 48.7295 18.1166 50.8566 18.1166 58.7032C18.1166 68.0509 18.1235 68.6627 18.2346 68.62C18.2971 68.5915 20.1365 67.5173 22.316 66.2368C24.4886 64.9492 30.4442 61.4421 35.5391 58.44C40.6339 55.4379 44.8334 52.9623 44.8611 52.9267C44.8889 52.8983 44.7431 52.6564 44.5349 52.3932C44.0768 51.8241 44.049 51.6249 44.3405 51.1411C45.7635 48.8505 53.5029 44.3829 56.0434 44.39C56.6751 44.39 56.7098 44.4754 56.1684 44.703C53.9333 45.6777 48.8593 48.7224 47.117 50.1381C46.3674 50.7499 46.3604 50.7712 46.763 51.2905C47.0892 51.7174 47.1031 51.7245 47.3669 51.6818C48.6094 51.4897 54.4261 48.2529 57.1748 46.2254C57.6399 45.884 57.8273 45.7915 58.1466 45.7417C59.1114 45.5781 59.3058 45.8555 58.8338 46.6807C58.6741 46.9582 58.5839 47.0293 58.0494 47.2641C55.7519 48.2742 50.8722 51.2123 49.13 52.6279C48.5191 53.133 48.3942 53.3038 48.533 53.4816C48.9703 54.0578 49.1161 54.2072 49.2618 54.2072C50.2059 54.2072 56.3766 50.7925 59.2017 48.7082L59.7917 48.2742H60.3609C60.8329 48.2742 60.9648 48.3027 61.0828 48.4094C61.1869 48.509 61.2146 48.5944 61.1869 48.7295C61.1036 49.0568 60.7357 49.6472 60.576 49.697C60.2706 49.7895 57.9037 51.006 56.8486 51.6106C53.732 53.4033 50.9347 55.2956 50.6154 55.8434C50.5321 55.9786 50.5599 56.0355 50.8861 56.4196C51.2332 56.8322 51.2609 56.8465 51.4969 56.8038C52.7602 56.5619 58.2577 53.5243 60.9856 51.5537C61.6519 51.0771 61.8185 50.9846 61.8324 51.0842C61.9296 51.6533 60.3747 53.1828 58.2716 54.6056C55.0022 56.8038 51.4692 58.4044 49.8935 58.4044C49.366 58.4044 49.3104 58.3688 48.776 57.7073L48.5886 57.4725L34.9074 65.5325C27.3831 69.9716 21.2263 73.6282 21.2263 73.6637C21.2263 73.7633 22.5867 74.3396 23.6973 74.7166C27.3276 75.9544 32.3183 76.7654 38.1004 77.05C40.0092 77.1424 45.6524 77.0997 47.235 76.9788C49.9907 76.7654 51.8926 76.5449 53.8986 76.2176C60.104 75.2003 64.477 73.3436 65.4627 71.309L65.6293 70.9605L65.6501 55.8078L65.664 40.6552L66.2401 40.4561C67.663 39.951 69.433 38.8768 70.6616 37.7599C73.1674 35.4763 74.8194 32.3035 75.3539 28.7395C75.5205 27.6155 75.5205 25.5097 75.3539 24.4C74.9305 21.5829 73.8546 19.0503 72.2026 16.9802C71.6334 16.2688 70.4603 15.1234 69.7801 14.6041C67.8504 13.1316 65.6501 12.2281 63.3595 11.9507C62.2975 11.8226 60.2984 11.8937 59.3197 12.0929C57.3484 12.4913 55.2382 13.4659 53.7459 14.661C53.5029 14.8531 53.2878 15.0096 53.2531 15.0096C53.2253 15.0096 52.9823 14.782 52.7186 14.5045C50.5946 12.2992 47.3738 10.6844 43.9726 10.1295C43.1536 9.99432 40.2244 9.93742 39.4261 10.037Z" fill="white"/>
<path d="M13.5284 11.2962C12.2859 12.4344 10.2869 14.5472 10.2244 14.7891C10.155 15.0737 10.3354 15.3227 10.627 15.3511C10.863 15.3725 10.9185 15.3227 11.8 14.3694C12.3068 13.8145 13.1952 12.9253 13.7714 12.3917C15.2151 11.0472 15.2012 11.0614 15.2012 10.8551C15.2012 10.6133 14.9722 10.3856 14.7292 10.3856C14.5696 10.3856 14.3128 10.5848 13.5284 11.2962Z" fill="white"/>
<path d="M71.564 11.8084C71.2655 12.1143 71.3558 12.2708 72.3692 13.3023C73.2577 14.2129 74.4585 15.5503 75.1943 16.4466C75.465 16.7739 75.5691 16.8593 75.7357 16.8593C75.9925 16.8593 76.2146 16.6316 76.2146 16.3755C76.2146 16.0625 74.4932 14.0635 72.7301 12.3206C72.0152 11.6163 71.8278 11.5381 71.564 11.8084Z" fill="white"/>
<path d="M6.92041 19.1357C6.60111 19.3918 5.13652 21.9101 4.29663 23.6317C3.90098 24.4427 3.86627 24.5494 3.94263 24.713C3.98427 24.8197 4.10227 24.9335 4.19945 24.9833C4.49792 25.1185 4.68534 24.9691 5.00463 24.3146C5.6224 23.0483 6.5317 21.4264 7.30218 20.2099C7.71865 19.5554 7.73948 19.2709 7.37853 19.0717C7.17724 18.965 7.12865 18.9721 6.92041 19.1357Z" fill="white"/>
<path d="M78.7551 20.7791C78.4983 20.9854 78.5191 21.2486 78.8523 21.8035C79.4354 22.7781 80.539 25.0047 81.0735 26.2852C81.1429 26.4559 81.2817 26.648 81.3789 26.712C81.6705 26.9112 82.0453 26.6907 82.0453 26.3208C82.0453 25.7801 79.6714 21.0423 79.248 20.7364C79.0536 20.5941 78.9773 20.6012 78.7551 20.7791Z" fill="white"/>
<path d="M2.0338 29.5575C1.75615 29.7567 1.13144 32.0687 0.652496 34.6795C0.513672 35.4265 0.499789 35.6399 0.56226 35.8035C0.708026 36.1521 1.2425 36.1521 1.37438 35.8035C1.41603 35.6897 1.53403 35.1561 1.63121 34.6084C1.83945 33.4559 2.2698 31.649 2.56827 30.6602C2.68627 30.276 2.77651 29.9274 2.77651 29.8847C2.77651 29.7567 2.45027 29.4508 2.31145 29.4508C2.24204 29.4508 2.11709 29.5006 2.0338 29.5575Z" fill="white"/>
<path d="M83.2461 31.3716C82.9268 31.5068 82.9198 31.6562 83.1836 32.7802C83.489 34.1034 83.6695 35.0851 83.8777 36.5505C84.0582 37.8097 84.1346 37.9875 84.4886 37.9875C84.6899 37.9875 84.9606 37.7741 84.9606 37.6105C84.9606 37.5607 84.912 37.1481 84.8564 36.6999C84.6135 34.7721 83.968 31.6704 83.7736 31.4783C83.6348 31.3432 83.4196 31.3005 83.2461 31.3716Z" fill="white"/>
<path d="M0.152707 41.0678C0.00694122 41.2243 0 41.3026 0 42.3768C0 43.6288 0.0902359 45.2223 0.242943 46.5598C0.319296 47.2783 0.360944 47.4276 0.485886 47.5344C0.687181 47.7051 0.937065 47.698 1.1106 47.5201C1.2633 47.3636 1.27719 47.1573 1.18001 46.453C1.07589 45.6776 0.971771 43.8565 0.950948 42.4835C0.937065 41.203 0.930124 41.1745 0.770476 41.0394C0.555298 40.8615 0.333179 40.8686 0.152707 41.0678Z" fill="white"/>
<path d="M84.4261 41.701C84.3012 41.8504 84.2804 42.0283 84.204 43.6787C84.1624 44.6746 84.0791 45.8769 84.0235 46.3464C83.8153 48.1178 83.8222 47.9897 83.9819 48.1533C84.1624 48.3383 84.4816 48.3454 84.6413 48.1676C84.8704 47.9115 85.1688 44.9379 85.1688 42.9531C85.1688 41.8077 85.1619 41.7651 85.0161 41.6584C84.8009 41.5018 84.5927 41.5161 84.4261 41.701Z" fill="white"/>
<path d="M1.55482 52.6066C1.47152 52.7347 1.45764 52.8556 1.49235 53.0477C1.62423 53.7662 2.77647 57.0884 3.32483 58.3476C3.54001 58.8384 3.88707 58.9736 4.16472 58.689C4.36601 58.4827 4.33825 58.3049 4.02589 57.5437C3.60248 56.5406 3.0333 54.94 2.67236 53.7449C2.49883 53.1615 2.29753 52.6209 2.242 52.5568C2.06847 52.3648 1.69364 52.3932 1.55482 52.6066Z" fill="white"/>
<path d="M82.8227 53.1188C82.7324 53.1971 82.552 53.6381 82.3507 54.2784C81.9481 55.5589 81.483 56.8109 80.9763 57.9989C80.7472 58.5396 80.6084 58.9522 80.6362 59.0305C80.8097 59.5355 81.3164 59.5427 81.5594 59.0376C82.0661 58.0345 83.5723 53.8658 83.5723 53.4816C83.5723 53.3038 83.2738 52.9979 83.1003 52.9979C83.024 52.9979 82.899 53.0548 82.8227 53.1188Z" fill="white"/>
<path d="M6.14994 63.185C6.08747 63.2703 6.03888 63.4126 6.03888 63.4908C6.03888 63.8394 8.88478 67.9442 9.52337 68.5204C9.78714 68.7622 10.2314 68.62 10.273 68.2927C10.3077 68.0437 10.2522 67.9299 9.87738 67.4675C9.21102 66.6352 8.05183 65.0203 7.51042 64.1667C7.21889 63.7185 6.92736 63.2774 6.851 63.185C6.65665 62.9715 6.2957 62.9715 6.14994 63.185Z" fill="white"/>
<path d="M78.1443 63.5976C78.0818 63.6403 77.7001 64.1596 77.2975 64.7571C76.6103 65.7744 75.9162 66.7135 74.9166 67.9726C74.4446 68.556 74.3891 68.7694 74.6182 69.0041C74.7847 69.1749 75.0138 69.1891 75.222 69.0397C75.5344 68.8121 77.4502 66.2795 78.3664 64.8781C78.8523 64.1382 78.9148 63.875 78.651 63.6545C78.4705 63.5122 78.3248 63.498 78.1443 63.5976Z" fill="white"/>
<path d="M13.5076 71.9991C13.2369 72.2196 13.2647 72.5184 13.5909 72.8243C14.4169 73.614 15.9301 74.8589 17.1865 75.7837C18.0819 76.4453 18.3318 76.5307 18.5678 76.2603C18.7552 76.0469 18.7205 75.7552 18.4914 75.5703C18.3804 75.4849 17.7279 74.9798 17.0407 74.4605C16.3535 73.9341 15.4373 73.1871 15 72.803C14.174 72.0631 13.8963 71.8497 13.7714 71.8497C13.7297 71.8497 13.6117 71.9137 13.5076 71.9991Z" fill="white"/>
<path d="M70.8005 72.3264C70.7449 72.3548 70.3424 72.6821 69.8981 73.0591C69.0166 73.8203 67.8019 74.7664 66.7537 75.5134C66.011 76.0327 65.8722 76.2248 65.9972 76.5093C66.0874 76.7156 66.365 76.8508 66.5455 76.7797C66.7676 76.7014 68.8083 75.2146 69.7593 74.4321C70.9324 73.4788 71.4252 72.988 71.4252 72.7959C71.4252 72.5042 71.0573 72.2268 70.8005 72.3264Z" fill="white"/>
<path d="M22.9199 78.4656C22.7186 78.551 22.6145 78.8356 22.6978 79.0774C22.7533 79.2197 22.9685 79.3549 23.6904 79.7106C24.8773 80.2939 26.3142 80.9128 27.4734 81.3468L28.3965 81.6882L28.5839 81.546C28.7852 81.3894 28.8547 81.112 28.7436 80.8986C28.7019 80.8203 28.3618 80.6496 27.8551 80.4575C26.7098 80.0236 25.1133 79.3406 24.0583 78.8284C23.5654 78.5866 23.142 78.3945 23.1212 78.4016C23.1004 78.4016 23.0101 78.4301 22.9199 78.4656Z" fill="white"/>
<path d="M60.7704 79.0062C59.5973 79.554 58.0425 80.2084 57.0707 80.557C56.564 80.7349 56.0851 80.9198 56.0087 80.9625C55.7033 81.1261 55.7311 81.6454 56.0573 81.7948C56.1961 81.866 56.335 81.8375 56.8694 81.6597C57.7926 81.3395 59.6112 80.6068 60.7149 80.0946C61.9296 79.5397 62.1795 79.2836 61.8671 78.9066C61.6519 78.6505 61.4992 78.6647 60.7704 79.0062Z" fill="white"/>
<path d="M33.4984 82.3711C33.3318 82.5561 33.3318 82.8548 33.4984 83.0256C33.7691 83.2959 38.503 84.0144 39.4609 83.929C39.7871 83.9006 39.9606 83.6658 39.8843 83.3528C39.8218 83.0825 39.683 83.0327 38.7945 82.9473C37.6284 82.8406 36.4692 82.6841 35.2961 82.4778C33.7344 82.2004 33.6511 82.1932 33.4984 82.3711Z" fill="white"/>
<path d="M50.428 82.3854C49.7338 82.5348 47.2072 82.8762 46.2979 82.9474C45.7426 82.99 45.1873 83.0398 45.0624 83.0612C44.6182 83.1323 44.5002 83.6659 44.875 83.9149C45.0346 84.0216 45.1526 84.0216 46.0758 83.9504C47.2628 83.8508 48.8107 83.6516 50.0462 83.4382C50.9694 83.2817 51.2262 83.1465 51.2262 82.8335C51.2262 82.6415 51.0319 82.3996 50.8444 82.3569C50.7681 82.3427 50.5807 82.3498 50.428 82.3854Z" fill="white"/>
</svg>
